<?xml version="1.0" encoding="UTF-8"?>
<svg xmlns="http://www.w3.org/2000/svg" width="1785" height="808" fill="none" viewBox="0 0 1785 808"><path fill="#0E0A1B" d="M0 0h1785v808H0z"/><mask id="a" width="1227" height="629" x="0" y="0" maskUnits="userSpaceOnUse" style="mask-type:alpha"><path fill="#D9D9D9" d="M1227 629H0V0h1227z"/></mask><g mask="url(#a)"><mask id="b" width="1181" height="1323" x="13" y="-484" maskUnits="userSpaceOnUse" style="mask-type:alpha"><path fill="#2CD4D9" stroke="#fff" stroke-width="1.3016" d="m716.43-429.21-545.44-53.06c-69.557-6.766-127.33 42.527-131 111.78l-25.651 483.6c-1.4475 27.29 5.8076 55.09 20.726 79.417l353.49 576.42c42.76 69.728 133.82 90.766 193.45 44.694l565.35-436.8c49.23-38.041 59.72-109.35 24.55-167l-347.74-570.16c-23.641-38.763-64.113-64.641-107.73-68.884z"/></mask><g mask="url(#b)"><g filter="url(#c)"><path fill="url(#d)" d="M847.4-680.8C600.3-738.649 47.33-138.85.62 164.32c-46.709 303.17 360.11-78.758 607.21-20.909 247.1 57.849 457.48 140.92 504.19-162.25 46.7-303.17-17.52-604.12-264.63-661.97z"/></g></g></g><mask id="e" width="1388" height="629" x="397" y="179" maskUnits="userSpaceOnUse" style="mask-type:alpha"><path fill="#D9D9D9" d="M397 179h1388v629H397z"/></mask><g mask="url(#e)"><mask id="f" width="1181" height="1323" x="594" y="-16" maskUnits="userSpaceOnUse" style="mask-type:alpha"><path fill="#2CD4D9" stroke="#fff" stroke-width="1.3016" d="m1071.6 1252.3 545.44 53.06c69.55 6.76 127.33-42.53 131-111.78l25.65-483.6c1.45-27.29-5.81-55.09-20.73-79.417l-353.48-576.42c-42.76-69.728-133.82-90.766-193.45-44.694l-565.34 436.8c-49.236 38.04-59.722 109.35-24.558 167l347.74 570.15c23.642 38.76 64.111 64.64 107.73 68.89z"/></mask><g mask="url(#f)"><g filter="url(#c)"><path fill="url(#g)" d="M940.6 1503.9c247.1 57.85 800.07-541.95 846.78-845.12 46.71-303.17-360.11 78.758-607.22 20.909-247.1-57.849-457.48-140.92-504.18 162.25-46.709 303.16 17.518 604.11 264.62 661.96z"/></g></g></g><defs><linearGradient id="d" x1="1661.7" x2="-417.44" y1="-858.93" y2="503.04" gradientUnits="userSpaceOnUse"><stop offset=".21875" stop-color="#D824C5"/><stop offset=".92188" stop-color="#EE7A0F"/></linearGradient><linearGradient id="g" x1="126.27" x2="2205.4" y1="1682" y2="320.05" gradientUnits="userSpaceOnUse"><stop offset=".21875" stop-color="#D824C5"/><stop offset=".92188" stop-color="#EE7A0F"/></linearGradient><filter id="c" width="200%" height="200%" x="-50%" y="-50%" color-interpolation-filters="sRGB"><feGaussianBlur stdDeviation="130"/></filter></defs></svg>